<svg xmlns="http://www.w3.org/2000/svg" width="503.415" height="483.923" viewBox="0 0 503.415 483.923">
  <g id="Group_29" data-name="Group 29" transform="translate(-600.292 -226)">
    <g id="Group_28" data-name="Group 28" transform="translate(-108 -13)">
      <g id="Group_7" data-name="Group 7" transform="translate(708.292 490.06)">
        <g id="Rectangle_5" data-name="Rectangle 5" fill="none" stroke="#e6e6e6" stroke-width="1">
          <rect width="503.415" height="99.88" rx="5" stroke="none"/>
          <rect x="0.5" y="0.5" width="502.415" height="98.88" rx="4.5" fill="none"/>
        </g>
        <g id="Group_5" data-name="Group 5" transform="translate(81.549 35.888)" opacity="0.5">
          <path id="Path_28" data-name="Path 28" d="M195.014,376.926H474.158c2.594,0,4.7-2.419,4.7-5.393s-2.11-5.393-4.7-5.393H195.014c-2.594,0-4.7,2.419-4.7,5.393S192.419,376.926,195.014,376.926Z" transform="translate(-190.309 -366.14)" fill="#caccdc"/>
          <path id="Path_29" data-name="Path 29" d="M242.781,395.67H398.035c2.594,0,4.7-2.419,4.7-5.393s-2.11-5.393-4.7-5.393H242.781c-2.594,0-4.7,2.419-4.7,5.393S240.186,395.67,242.781,395.67Z" transform="translate(-176.131 -362.966)" fill="#caccdc"/>
        </g>
        <path id="Path_20" data-name="Path 20" d="M225.617,303.665H266.78c2.512,0,4.556-2.591,4.556-5.775v-5.218c0-3.184-2.044-5.774-4.556-5.774H225.617c-2.512,0-4.556,2.59-4.556,5.774v5.218C221.061,301.074,223.1,303.665,225.617,303.665Z" transform="translate(184.784 -263.987)" fill="#e2e0fb"/>
      </g>
      <g id="Group_30" data-name="Group 30" transform="translate(708.292 357.077)">
        <g id="Rectangle_5-2" data-name="Rectangle 5" fill="none" stroke="#e6e6e6" stroke-width="1">
          <rect width="503.415" height="99.88" rx="5" stroke="none"/>
          <rect x="0.5" y="0.5" width="502.415" height="98.88" rx="4.5" fill="none"/>
        </g>
        <g id="Group_5-2" data-name="Group 5" transform="translate(81.549 35.888)" opacity="0.5">
          <path id="Path_28-2" data-name="Path 28" d="M195.014,376.926H474.158c2.594,0,4.7-2.419,4.7-5.393s-2.11-5.393-4.7-5.393H195.014c-2.594,0-4.7,2.419-4.7,5.393S192.419,376.926,195.014,376.926Z" transform="translate(-190.309 -366.14)" fill="#caccdc"/>
          <path id="Path_29-2" data-name="Path 29" d="M242.781,395.67H398.035c2.594,0,4.7-2.419,4.7-5.393s-2.11-5.393-4.7-5.393H242.781c-2.594,0-4.7,2.419-4.7,5.393S240.186,395.67,242.781,395.67Z" transform="translate(-176.131 -362.966)" fill="#caccdc"/>
        </g>
        <path id="Path_20-2" data-name="Path 20" d="M225.617,303.665H266.78c2.512,0,4.556-2.591,4.556-5.775v-5.218c0-3.184-2.044-5.774-4.556-5.774H225.617c-2.512,0-4.556,2.59-4.556,5.774v5.218C221.061,301.074,223.1,303.665,225.617,303.665Z" transform="translate(184.784 -263.987)" fill="#e2e0fb"/>
      </g>
      <g id="Group_27" data-name="Group 27" transform="translate(708.292 623.044)">
        <g id="Rectangle_5-3" data-name="Rectangle 5" fill="none" stroke="#e6e6e6" stroke-width="1">
          <rect width="503.415" height="99.88" rx="5" stroke="none"/>
          <rect x="0.5" y="0.5" width="502.415" height="98.88" rx="4.5" fill="none"/>
        </g>
        <g id="Group_5-3" data-name="Group 5" transform="translate(81.549 35.888)" opacity="0.5">
          <path id="Path_28-3" data-name="Path 28" d="M195.014,376.926H474.158c2.594,0,4.7-2.419,4.7-5.393s-2.11-5.393-4.7-5.393H195.014c-2.594,0-4.7,2.419-4.7,5.393S192.419,376.926,195.014,376.926Z" transform="translate(-190.309 -366.14)" fill="#c3c6d7"/>
          <path id="Path_29-3" data-name="Path 29" d="M242.781,395.67H398.035c2.594,0,4.7-2.419,4.7-5.393s-2.11-5.393-4.7-5.393H242.781c-2.594,0-4.7,2.419-4.7,5.393S240.186,395.67,242.781,395.67Z" transform="translate(-176.131 -362.966)" fill="#c3c6d7"/>
        </g>
        <path id="Path_20-3" data-name="Path 20" d="M225.617,303.665H266.78c2.512,0,4.556-2.591,4.556-5.775v-5.218c0-3.184-2.044-5.774-4.556-5.774H225.617c-2.512,0-4.556,2.59-4.556,5.774v5.218C221.061,301.074,223.1,303.665,225.617,303.665Z" transform="translate(184.784 -263.987)" fill="#cbc8fc" opacity="0.5"/>
      </g>
    </g>
    <!-- <text id="Invoices_page_is_empty_" data-name="Invoices page is empty " transform="translate(852 264)" fill="#888eb0" font-size="35" font-family="SegoeUI, Segoe UI"><tspan x="-180.494" y="0">Invoices page is empty </tspan></text> -->
  </g>
</svg>
