<!-- <svg xmlns="http://www.w3.org/2000/svg" width="660.159" height="360.092" viewBox="0 0 660.159 360.092">
  <g id="Group_15" data-name="Group 15" transform="translate(-166.608 -456.891)">
    <g id="Group_11" data-name="Group 11" transform="translate(-49)">
      <g id="Group_10" data-name="Group 10" transform="translate(27)">
        <path id="Rectangle_8" data-name="Rectangle 8" d="M0,0H22A10,10,0,0,1,32,10V348a10,10,0,0,1-10,10H0a0,0,0,0,1,0,0V0A0,0,0,0,1,0,0Z" transform="translate(370 457)" fill="#2f2e41"/>
        <g id="Group_6" data-name="Group 6" transform="translate(237.41 457)">
          <path id="Path_2" data-name="Path 2" d="M469.86,453.274a.762.762,0,0,0,.764.764h158.7a.761.761,0,0,0,.764-.764.743.743,0,0,0-.205-.52H572.3a26.731,26.731,0,0,1-3.607-.244H470.624A.761.761,0,0,0,469.86,453.274Z" transform="translate(-469.86 -95.917)" fill="#2f2e41"/>
          <path id="Path_4" data-name="Path 4" d="M.43,28.066A38.874,38.874,0,0,1,3.536,17.43C8.285,7.038,17.359,0,27.743,0H359.319c10.39,0,19.458,7.038,24.213,17.43a38.865,38.865,0,0,1,3.1,10.636,41.34,41.34,0,0,1,.43,5.967V324.087c0,18.768-12.444,34.034-27.743,34.034H27.743a23.034,23.034,0,0,1-9.068-1.874C7.817,351.633,0,338.958,0,324.087V34.034a41.418,41.418,0,0,1,.43-5.967Zm.854,296.02c0,16.422,9.947,30,22.853,32.16a21.883,21.883,0,0,0,3.607.3H319.908c36.381,0,65.87-36.183,65.87-80.813V34.034a39.575,39.575,0,0,0-.449-5.967,36.837,36.837,0,0,0-3.273-10.636c-4.614-9.494-13.073-15.856-22.737-15.856H27.743C18.078,1.575,9.62,7.936,5.006,17.43A36.834,36.834,0,0,0,1.733,28.066a39.571,39.571,0,0,0-.449,5.967Z" transform="translate(132.118 0)" fill="#2f2e41"/>
          <g id="Group_4" data-name="Group 4" transform="translate(37.616 173.455)">
            <path id="Path_5" data-name="Path 5" d="M581.229,209.614l2.172-7.963-9.773-3.619-1.086,7.239Z" transform="translate(-526.686 -178.207)" fill="#ffb6b6"/>
            <path id="Path_6" data-name="Path 6" d="M576.126,210.28l2.172-7.963-5.755-2.428,1.788,9.388Z" transform="translate(-521.583 -178.872)" opacity="0.1"/>
            <g id="Group_2" data-name="Group 2" transform="translate(48.022 29.131)">
              <path id="Path_7" data-name="Path 7" d="M562.216,287.908c1.867-1.111,1.965-4.389.22-7.322a8.542,8.542,0,0,0-2.783-2.92l-1.025-1.674L545.663,252.75s-5.675-21.92-7.986-24.57a6.4,6.4,0,0,0-5.651-2.026l-2.963,2.632,10.576,31.046,13.05,18.379,1.749,2.558a8.544,8.544,0,0,0,1.238,3.839c1.745,2.933,4.673,4.411,6.54,3.3Z" transform="translate(-527.087 -217.39)" fill="#ffb6b6"/>
              <path id="Path_8" data-name="Path 8" d="M558.144,212.534a8.913,8.913,0,0,0-6.725,3.044c-2.6,3.2,11.029,39.307,11.029,39.307l11.1-.393Z" transform="translate(-551.088 -212.533)" fill="#6c63ff"/>
            </g>
            <circle id="Ellipse_1" data-name="Ellipse 1" cx="10.134" cy="10.134" r="10.134" transform="translate(43.865 4.443)" fill="#ffb6b6"/>
            <path id="Path_9" data-name="Path 9" d="M520.656,418.1l6.877,17.011,3.981-3.981,1.448-7.6-5.791-7.238Z" transform="translate(-442.949 -256.398)" fill="#ffb6b6"/>
            <path id="Path_10" data-name="Path 10" d="M635.818,409.526l-6.877,7.963L632.2,424l7.239-1.086,3.619-10.134Z" transform="translate(-622.536 -253.974)" fill="#ffb6b6"/>
            <path id="Path_11" data-name="Path 11" d="M589,261.48l.9,14.659-22.44-3.981,1.448-9.049Z" transform="translate(-529.934 -200.937)" fill="#ffb6b6"/>
            <path id="Path_12" data-name="Path 12" d="M552.411,280.462l-22.621-7.42s-8.325,16.649.724,27.145S569.6,370.4,569.6,370.4l9.048-4.343-13.03-38-14.478-35.108,1.267-12.487Z" transform="translate(-492.258 -205.079)" fill="#2f2e41"/>
            <path id="Path_13" data-name="Path 13" d="M602.71,305.753l-8.687,38-18.1,29.317,9.41,5.429,25.336-34.747L619,316.973Z" transform="translate(-564.454 -216.797)" fill="#2f2e41"/>
            <path id="Path_14" data-name="Path 14" d="M503.361,424.6h6.268s7.314-2.9,9.029,0-7.648,11.108-7.648,11.108-13.078,7.351-14.887,6.989-2.534-4.705-2.534-4.705l-2.172-5.067,3.257,1.086s4.343-2.534,3.257-6.877l5.429-2.534Z" transform="translate(-410.091 -258.913)" fill="#2f2e41"/>
            <path id="Path_15" data-name="Path 15" d="M627.832,421.606v-3.619l-4.208,3.619s-7.012,2.534-1.583,7.963,12.306,11.22,12.306,11.22,10.858,2.9,11.582-.362,0-4.576,0-4.576l-3.981-1.939-3.619-9.41-5.791.724-4.705-3.619Z" transform="translate(-619.98 -257.004)" fill="#2f2e41"/>
            <path id="Path_16" data-name="Path 16" d="M574.618,183.707l3.257-.362,5.972-5.972s5.429,2.9,5.429.724c0-10.134-6.153-9.772-11.22-10.5s-4.524-.9-6.153,1.81c-.745,1.241-3.438,1.991-3.438,1.991s-5.067-6.877-7.6,1.448.724,34.022-1.81,36.194,10.4,4.34,9-4.164-3.935-21.534-2.487-24.429,1.81-2.172,1.81-2.172c-1.794-.733-2.966,12.171,3.8,12.8l.183-6.287s1.086-3.257,3.257-1.086Z" transform="translate(-523.695 -167.14)" fill="#2f2e41"/>
            <path id="Path_17" data-name="Path 17" d="M586.7,209.989l-10.858-4.343-14.478,43.433,29.788-1.085,2.682-12.963s2.619-6.747.447-10.728S586.7,209.99,586.7,209.99Z" transform="translate(-531.249 -180.935)" fill="#6c63ff"/>
            <g id="Group_3" data-name="Group 3" transform="translate(23.768 26.432)">
              <path id="Path_18" data-name="Path 18" d="M602.734,287.949c2.164.186,4.155-2.42,4.447-5.821a8.543,8.543,0,0,0-.559-4l.143-1.958,3.016-26.442S615.4,228.1,615.064,224.6s-.857-4.43-.857-4.43l-3.942.411-9.507,31.39-.111,22.541-.07,3.1a8.542,8.542,0,0,0-1.232,3.841c-.292,3.4,1.225,6.308,3.389,6.494Z" transform="translate(-599.309 -212.571)" fill="#ffb6b6"/>
              <path id="Path_19" data-name="Path 19" d="M611.219,210.045a8.913,8.913,0,0,0-7.239-1.448c-3.981,1.086-13.955,38.366-13.955,38.366l9.249,6.153Z" transform="translate(-589.493 -208.327)" fill="#6c63ff"/>
            </g>
          </g>
          <path id="Path_24" data-name="Path 24" d="M53.741,78.341H82.619a3.851,3.851,0,0,0,0-7.7H53.741a3.851,3.851,0,0,0,0,7.7Z" transform="translate(374.076 -4.306)" fill="#e6e6e6"/>
          <path id="Path_25" data-name="Path 25" d="M322.741,78.341H351.62a3.851,3.851,0,0,0,0-7.7H322.741a3.851,3.851,0,0,0,0,7.7Z" transform="translate(6.759 -4.306)" fill="#e6e6e6"/>
          <path id="Path_26" data-name="Path 26" d="M407.741,78.341h28.879a3.851,3.851,0,0,0,0-7.7H407.741a3.851,3.851,0,1,0,0,7.7Z" transform="translate(-192.722 -4.306)" fill="#e6e6e6"/>
          <path id="Path_32" data-name="Path 32" d="M411.229,85.318H466.27a7.339,7.339,0,0,0,0-14.678H411.229a7.339,7.339,0,1,0,0,14.678Z" transform="translate(-194.722 -21.456)" fill="#e6e6e6"/>
          <g id="Group_7" data-name="Group 7" transform="translate(362.229 102.111)">
            <rect id="Rectangle_5" data-name="Rectangle 5" width="249.128" height="43.118" rx="5" fill="#fff"/>
            <g id="Group_5" data-name="Group 5" transform="translate(40.357 15.493)">
              <path id="Path_28" data-name="Path 28" d="M192.637,370.8H330.779a2.328,2.328,0,1,0,0-4.656H192.637a2.328,2.328,0,1,0,0,4.656Z" transform="translate(-190.309 -366.14)" fill="#e6e6e6"/>
              <path id="Path_29" data-name="Path 29" d="M240.4,389.541h76.832a2.328,2.328,0,1,0,0-4.656H240.4a2.328,2.328,0,0,0,0,4.656Z" transform="translate(-207.421 -375.422)" fill="#e6e6e6"/>
            </g>
            <path id="Path_20" data-name="Path 20" d="M223.316,294.136h20.371a2.386,2.386,0,0,0,2.255-2.493V289.39a2.385,2.385,0,0,0-2.255-2.493H223.316a2.385,2.385,0,0,0-2.255,2.493v2.253A2.386,2.386,0,0,0,223.316,294.136Z" transform="translate(-20.218 -277.007)" fill="#6c63ff"/>
          </g>
          <g id="Group_8" data-name="Group 8" transform="translate(211.419 162.729)">
            <rect id="Rectangle_5-2" data-name="Rectangle 5" width="249.128" height="43.118" rx="5" transform="translate(0 0)" fill="#fff"/>
            <g id="Group_5-2" data-name="Group 5" transform="translate(45.924 15.493)">
              <path id="Path_28-2" data-name="Path 28" d="M192.637,370.8H330.779a2.328,2.328,0,1,0,0-4.656H192.637a2.328,2.328,0,1,0,0,4.656Z" transform="translate(-190.309 -366.14)" fill="#e6e6e6"/>
              <path id="Path_29-2" data-name="Path 29" d="M240.4,389.541h76.832a2.328,2.328,0,1,0,0-4.656H240.4a2.328,2.328,0,0,0,0,4.656Z" transform="translate(-207.421 -375.422)" fill="#e6e6e6"/>
            </g>
            <path id="Path_20-2" data-name="Path 20" d="M223.316,294.136h20.371a2.386,2.386,0,0,0,2.255-2.493V289.39a2.385,2.385,0,0,0-2.255-2.493H223.316a2.385,2.385,0,0,0-2.255,2.493v2.253A2.386,2.386,0,0,0,223.316,294.136Z" transform="translate(-14.651 -277.007)" fill="#6c63ff"/>
          </g>
          <g id="Group_9" data-name="Group 9" transform="translate(211.787 223.347)">
            <rect id="Rectangle_5-3" data-name="Rectangle 5" width="249.128" height="43.118" rx="5" transform="translate(0 0)" fill="#fff"/>
            <g id="Group_5-3" data-name="Group 5" transform="translate(43.45 15.493)">
              <path id="Path_28-3" data-name="Path 28" d="M192.637,370.8H330.779a2.328,2.328,0,1,0,0-4.656H192.637a2.328,2.328,0,1,0,0,4.656Z" transform="translate(-190.309 -366.14)" fill="#e6e6e6"/>
              <path id="Path_29-3" data-name="Path 29" d="M240.4,389.541h76.832a2.328,2.328,0,1,0,0-4.656H240.4a2.328,2.328,0,0,0,0,4.656Z" transform="translate(-207.421 -375.422)" fill="#e6e6e6"/>
            </g>
            <path id="Path_20-3" data-name="Path 20" d="M223.316,294.136h20.371a2.386,2.386,0,0,0,2.255-2.493V289.39a2.385,2.385,0,0,0-2.255-2.493H223.316a2.385,2.385,0,0,0-2.255,2.493v2.253A2.386,2.386,0,0,0,223.316,294.136Z" transform="translate(-17.125 -277.007)" fill="#6c63ff"/>
          </g>
          <path id="Rectangle_7" data-name="Rectangle 7" d="M0,0H22A10,10,0,0,1,32,10V24A10,10,0,0,1,22,34H0a0,0,0,0,1,0,0V0A0,0,0,0,1,0,0Z" transform="translate(132.118 -0.109)" fill="#6c63ff"/>
        </g>
      </g>
      <circle id="Ellipse_2" data-name="Ellipse 2" cx="7.5" cy="7.5" r="7.5" transform="translate(405 466)" fill="#fff"/>
    </g>
    <g id="Group_12" data-name="Group 12" transform="translate(-2245.089 -195.968)">
      <path id="Path_50" data-name="Path 50" d="M804.6,597.2s10.078,19.781,1.866,30.6.749,40.311.749,40.311" transform="translate(1622.103 341.668)" fill="none" stroke="#6c63ff" stroke-miterlimit="10" stroke-width="1"/>
      <path id="Path_51" data-name="Path 51" d="M806.878,581.41a11.656,11.656,0,0,1-2.8,6.91,9.931,9.931,0,0,1,0-13.821A11.656,11.656,0,0,1,806.878,581.41Z" transform="translate(1622.833 351.296)" fill="#6c63ff"/>
      <path id="Path_52" data-name="Path 52" d="M811.1,597.2s-10.078,19.781-1.866,30.6-.749,40.311-.749,40.311" transform="translate(1620.825 341.668)" fill="none" stroke="#6c63ff" stroke-miterlimit="10" stroke-width="1"/>
      <path id="Path_53" data-name="Path 53" d="M809.67,581.41a11.656,11.656,0,0,0,2.8,6.91,9.931,9.931,0,0,0,0-13.821A11.656,11.656,0,0,0,809.67,581.41Z" transform="translate(1619.275 351.296)" fill="#6c63ff"/>
      <path id="Path_54" data-name="Path 54" d="M809.67,581.41a11.656,11.656,0,0,0,2.8,6.91,9.931,9.931,0,0,0,0-13.821A11.656,11.656,0,0,0,809.67,581.41Z" transform="translate(1619.275 351.296)" opacity="0.1"/>
      <path id="Path_55" data-name="Path 55" d="M820.822,597.2s10.078,19.781,1.866,30.6.749,40.311.749,40.311" transform="translate(1615.224 341.668)" fill="none" stroke="#6c63ff" stroke-miterlimit="10" stroke-width="1"/>
      <path id="Path_56" data-name="Path 56" d="M823.047,581.41a11.656,11.656,0,0,1-2.8,6.91,9.931,9.931,0,0,1,0-13.821A11.656,11.656,0,0,1,823.047,581.41Z" transform="translate(1615.975 351.296)" fill="#6c63ff"/>
      <path id="Path_57" data-name="Path 57" d="M819.427,608.91a11.635,11.635,0,0,1-6.807,3.035A9.915,9.915,0,0,1,822.2,602,11.722,11.722,0,0,1,819.427,608.91Z" transform="translate(1618.024 339.632)" fill="#6c63ff"/>
      <path id="Path_58" data-name="Path 58" d="M819.887,632.63a11.635,11.635,0,0,1-6.807,3.035,9.915,9.915,0,0,1,9.577-9.945A11.616,11.616,0,0,1,819.887,632.63Z" transform="translate(1617.829 329.572)" fill="#6c63ff"/>
      <path id="Path_59" data-name="Path 59" d="M795.109,648.27a11.629,11.629,0,0,1,2.413,7.049,9.918,9.918,0,0,1-9.053-10.429A11.631,11.631,0,0,1,795.109,648.27Z" transform="translate(1628.267 321.441)" fill="#6c63ff"/>
      <path id="Path_60" data-name="Path 60" d="M798.622,599.066a11.632,11.632,0,0,1,4.21,6.15,9.914,9.914,0,0,1-11.512-7.63A11.6,11.6,0,0,1,798.622,599.066Z" transform="translate(1627.058 341.541)" fill="#6c63ff"/>
      <path id="Path_61" data-name="Path 61" d="M798.622,599.066a11.632,11.632,0,0,1,4.21,6.15,9.914,9.914,0,0,1-11.512-7.63A11.6,11.6,0,0,1,798.622,599.066Z" transform="translate(1627.058 341.541)" opacity="0.1"/>
      <path id="Path_62" data-name="Path 62" d="M827.3,597.2s-10.078,19.781-1.866,30.6-.749,40.311-.749,40.311" transform="translate(1613.954 341.668)" fill="none" stroke="#6c63ff" stroke-miterlimit="10" stroke-width="1"/>
      <path id="Path_63" data-name="Path 63" d="M825.87,581.41a11.656,11.656,0,0,0,2.8,6.91,9.931,9.931,0,0,0,0-13.821A11.656,11.656,0,0,0,825.87,581.41Z" transform="translate(1612.404 351.296)" fill="#6c63ff"/>
      <path id="Path_64" data-name="Path 64" d="M825.87,581.41a11.656,11.656,0,0,0,2.8,6.91,9.931,9.931,0,0,0,0-13.821A11.656,11.656,0,0,0,825.87,581.41Z" transform="translate(1612.404 351.296)" opacity="0.1"/>
      <path id="Path_65" data-name="Path 65" d="M825.149,612.354a11.793,11.793,0,0,0-2.879,6.911,11.62,11.62,0,0,0,6.841-2.954,11.793,11.793,0,0,0,2.879-6.911A11.662,11.662,0,0,0,825.149,612.354Z" transform="translate(1613.931 336.493)" fill="#6c63ff"/>
      <path id="Path_66" data-name="Path 66" d="M825.149,612.354a11.793,11.793,0,0,0-2.879,6.911,11.62,11.62,0,0,0,6.841-2.954,11.793,11.793,0,0,0,2.879-6.911A11.662,11.662,0,0,0,825.149,612.354Z" transform="translate(1613.931 336.493)" opacity="0.1"/>
      <path id="Path_67" data-name="Path 67" d="M834.259,645.164a11.793,11.793,0,0,0-2.879,6.91,11.62,11.62,0,0,0,6.841-2.954,11.793,11.793,0,0,0,2.879-6.91A11.624,11.624,0,0,0,834.259,645.164Z" transform="translate(1610.067 322.578)" fill="#6c63ff"/>
      <path id="Path_68" data-name="Path 68" d="M823,632.92s6.064-9.559,14.581-9.79" transform="translate(1613.621 330.67)" fill="none" stroke="#6c63ff" stroke-miterlimit="10" stroke-width="1"/>
      <path id="Path_69" data-name="Path 69" d="M804.031,622.9s-6.064-9.56-14.581-9.79" transform="translate(1627.851 334.92)" fill="none" stroke="#6c63ff" stroke-miterlimit="10" stroke-width="1"/>
      <path id="Path_70" data-name="Path 70" d="M813.4,646.59s6.064-9.56,14.581-9.79" transform="translate(1617.693 324.872)" fill="none" stroke="#6c63ff" stroke-miterlimit="10" stroke-width="1"/>
      <circle id="Ellipse_5" data-name="Ellipse 5" cx="1.572" cy="1.572" r="1.572" transform="translate(2449.336 952.182)" fill="#6c63ff"/>
      <circle id="Ellipse_6" data-name="Ellipse 6" cx="1.572" cy="1.572" r="1.572" transform="translate(2415.878 946.539)" fill="#6c63ff"/>
      <path id="Path_71" data-name="Path 71" d="M810.411,652.06s-6.064-9.56-14.581-9.79" transform="translate(1625.145 322.552)" fill="none" stroke="#6c63ff" stroke-miterlimit="10" stroke-width="1"/>
      <circle id="Ellipse_7" data-name="Ellipse 7" cx="1.572" cy="1.572" r="1.572" transform="translate(2419.552 963.331)" fill="#6c63ff"/>
      <circle id="Ellipse_8" data-name="Ellipse 8" cx="1.572" cy="1.572" r="1.572" transform="translate(2444.223 960.187)" fill="#6c63ff"/>
      <path id="Path_72" data-name="Path 72" d="M837.111,689.814S822.5,686.889,818.6,682.99s-21.44-10.717-23.392-5.845-26.312,21.44-9.744,24.365,38.981,3.9,43.853,1.946S837.111,689.814,837.111,689.814Z" transform="translate(1631.978 308.478)" fill="#a8a8a8"/>
      <path id="Path_73" data-name="Path 73" d="M785.466,710.2c16.568,2.925,38.981,3.9,43.853,1.946,3.709-1.486,6.289-8.638,7.308-11.932l.49.1s-2.925,11.7-7.8,13.642-27.285.973-43.853-1.946c-4.78-.846-6.15-2.828-5.632-5.333C780.237,708.313,781.907,709.568,785.466,710.2Z" transform="translate(1631.973 297.979)" opacity="0.2"/>
    </g>
  </g>
</svg> -->
<svg xmlns="http://www.w3.org/2000/svg" width="611.357" height="358.23" viewBox="0 0 611.357 358.23">
  <g id="Group_43" data-name="Group 43" transform="translate(-215.41 -456.891)">
    <g id="Rectangle_12" data-name="Rectangle 12" transform="translate(351 457)" fill="#edecfb" stroke="#707070" stroke-width="1">
      <rect width="383" height="358.12" rx="33" stroke="none"/>
      <rect x="0.5" y="0.5" width="382" height="357.12" rx="32.5" fill="none"/>
    </g>
    <g id="Group_15" data-name="Group 15">
      <g id="Group_11" data-name="Group 11" transform="translate(-49)">
        <g id="Group_10" data-name="Group 10" transform="translate(27)">
          <path id="Rectangle_8" data-name="Rectangle 8" d="M0,0H22A10,10,0,0,1,32,10V348a10,10,0,0,1-10,10H0a0,0,0,0,1,0,0V0A0,0,0,0,1,0,0Z" transform="translate(370 457)" fill="#2f2e41"/>
          <g id="Group_6" data-name="Group 6" transform="translate(237.41 457)">
            <path id="Path_2" data-name="Path 2" d="M469.86,453.274a.762.762,0,0,0,.764.764h158.7a.761.761,0,0,0,.764-.764.743.743,0,0,0-.205-.52H572.3a26.731,26.731,0,0,1-3.607-.244H470.624A.761.761,0,0,0,469.86,453.274Z" transform="translate(-469.86 -95.917)" fill="#2f2e41"/>
            <path id="Path_4" data-name="Path 4" d="M.43,28.066A38.874,38.874,0,0,1,3.536,17.43C8.285,7.038,17.359,0,27.743,0H359.319c10.39,0,19.458,7.038,24.213,17.43a38.865,38.865,0,0,1,3.1,10.636,41.34,41.34,0,0,1,.43,5.967V324.087c0,18.768-12.444,34.034-27.743,34.034H27.743a23.034,23.034,0,0,1-9.068-1.874C7.817,351.633,0,338.958,0,324.087V34.034a41.418,41.418,0,0,1,.43-5.967Zm.854,296.02c0,16.422,9.947,30,22.853,32.16a21.883,21.883,0,0,0,3.607.3H319.908c36.381,0,65.87-36.183,65.87-80.813V34.034a39.575,39.575,0,0,0-.449-5.967,36.837,36.837,0,0,0-3.273-10.636c-4.614-9.494-13.073-15.856-22.737-15.856H27.743C18.078,1.575,9.62,7.936,5.006,17.43A36.834,36.834,0,0,0,1.733,28.066a39.571,39.571,0,0,0-.449,5.967Z" transform="translate(132.118 0)" fill="#2f2e41"/>
            <g id="Group_4" data-name="Group 4" transform="translate(38.059 106.251)">
              <path id="Path_5" data-name="Path 5" d="M584.37,213.8l2.957-10.843-13.307-4.929-1.478,9.857Z" transform="translate(-510.102 -171.037)" fill="#ffb6b6"/>
              <path id="Path_6" data-name="Path 6" d="M577.422,214.038l2.957-10.843-7.837-3.306,2.434,12.783Z" transform="translate(-503.153 -171.271)" opacity="0.1"/>
              <g id="Group_2" data-name="Group 2" transform="translate(65.39 39.667)">
                <path id="Path_7" data-name="Path 7" d="M574.206,310.266c2.542-1.512,2.676-5.976.3-9.97a11.631,11.631,0,0,0-3.79-3.976l-1.4-2.28-17.654-31.648s-7.728-29.848-10.874-33.457a8.715,8.715,0,0,0-7.695-2.758l-4.035,3.584,14.4,42.275,17.771,25.026,2.381,3.483a11.633,11.633,0,0,0,1.686,5.228c2.376,3.994,6.363,6.006,8.9,4.494Z" transform="translate(-526.373 -214.243)" fill="#ffb6b6"/>
                <path id="Path_8" data-name="Path 8" d="M560.7,212.535a12.136,12.136,0,0,0-9.158,4.145C548,221.041,566.555,270.2,566.555,270.2l15.117-.535Z" transform="translate(-551.088 -212.533)" fill="#33d69f" stroke="#707070" stroke-width="1"/>
              </g>
              <circle id="Ellipse_1" data-name="Ellipse 1" cx="13.8" cy="13.8" r="13.8" transform="translate(59.73 6.049)" fill="#ffb6b6"/>
              <path id="Path_9" data-name="Path 9" d="M520.656,418.758l9.364,23.163,5.42-5.421,1.972-10.35-7.885-9.856Z" transform="translate(-414.845 -198.568)" fill="#ffb6b6"/>
              <path id="Path_10" data-name="Path 10" d="M638.305,409.526l-9.364,10.843,4.436,8.871,9.857-1.479,4.928-13.8Z" transform="translate(-620.22 -197.714)" fill="#ffb6b6"/>
              <path id="Path_11" data-name="Path 11" d="M596.79,261.48l1.232,19.961-30.556-5.421,1.971-12.321Z" transform="translate(-516.36 -179.04)" fill="#ffb6b6"/>
              <path id="Path_13" data-name="Path 13" d="M612.4,305.753,600.568,357.5l-24.642,39.921,12.813,7.393,34.5-47.313,11.336-36.471Z" transform="translate(-560.305 -184.624)" fill="#2f2e41" stroke="#707070" stroke-width="1"/>
              <path id="Path_14" data-name="Path 14" d="M507.681,425.065h8.535s9.96-3.943,12.294,0S518.1,440.19,518.1,440.19s-17.807,10.01-20.272,9.517-3.45-6.407-3.45-6.407l-2.957-6.9,4.436,1.479s5.914-3.45,4.436-9.364l7.393-3.45Z" transform="translate(-380.678 -199.453)" fill="#2f2e41"/>
              <path id="Path_15" data-name="Path 15" d="M630.672,422.915v-4.928l-5.73,4.928s-9.548,3.45-2.156,10.842,16.756,15.278,16.756,15.278,14.785,3.943,15.771-.493,0-6.23,0-6.23l-5.421-2.641-4.928-12.814-7.886.986Z" transform="translate(-619.98 -198.781)" fill="#2f2e41"/>
              <path id="Path_16" data-name="Path 16" d="M580.366,189.7l4.435-.493,8.132-8.132s7.393,3.943,7.393.986c0-13.8-8.378-13.307-15.278-14.292s-6.161-1.232-8.378,2.464c-1.014,1.69-4.682,2.711-4.682,2.711s-6.9-9.364-10.35,1.971.986,46.327-2.464,49.284,14.165,5.91,12.257-5.67-5.358-29.322-3.386-33.265,2.464-2.957,2.464-2.957c-2.443-1-4.039,16.572,5.172,17.433l.249-8.561s1.478-4.436,4.436-1.479Z" transform="translate(-511.026 -167.14)" fill="#2f2e41"/>
              <path id="Path_12" data-name="Path 12" d="M561.856,283.146l-30.8-10.1s-11.335,22.671.986,36.963,53.227,95.612,53.227,95.612l12.321-5.914-17.742-51.749-19.714-47.806,1.725-17Z" transform="translate(-479.948 -180.498)" fill="#2f2e41" stroke="#707070" stroke-width="1"/>
              <path id="Path_17" data-name="Path 17" d="M595.86,211.56l-14.785-5.914-19.714,59.141,40.65,10.1,3.563-29.233s3.566-9.187.609-14.608-10.323-19.49-10.323-19.49Z" transform="translate(-520.358 -171.997)" fill="#33d69f" stroke="#707070" stroke-width="1"/>
              <g id="Group_3" data-name="Group 3" transform="translate(32.364 35.991)">
                <path id="Path_18" data-name="Path 18" d="M603.973,312.462c2.947.253,5.658-3.3,6.056-7.926a11.635,11.635,0,0,0-.761-5.44l.2-2.666,4.107-36.005s7.645-29.452,7.192-34.218-1.166-6.032-1.166-6.032l-5.367.56-12.945,42.743-.152,30.693-.1,4.218a11.632,11.632,0,0,0-1.678,5.231c-.4,4.631,1.669,8.589,4.615,8.842Z" transform="translate(-599.309 -209.821)" fill="#ffb6b6"/>
                <path id="Path_19" data-name="Path 19" d="M618.885,210.666a12.136,12.136,0,0,0-9.857-1.971c-5.421,1.479-19,52.241-19,52.241l12.595,8.378Z" transform="translate(-589.3 -208.327)" fill="#33d69f" stroke="#707070" stroke-width="1"/>
              </g>
            </g>
            <path id="Path_24" data-name="Path 24" d="M53.741,78.341H82.619a3.851,3.851,0,0,0,0-7.7H53.741a3.851,3.851,0,0,0,0,7.7Z" transform="translate(374.076 -4.306)" fill="#e6e6e6"/>
            <path id="Path_25" data-name="Path 25" d="M322.741,78.341H351.62a3.851,3.851,0,0,0,0-7.7H322.741a3.851,3.851,0,0,0,0,7.7Z" transform="translate(6.759 -4.306)" fill="#e6e6e6"/>
            <path id="Path_26" data-name="Path 26" d="M407.741,78.341h28.879a3.851,3.851,0,0,0,0-7.7H407.741a3.851,3.851,0,1,0,0,7.7Z" transform="translate(-192.722 -4.306)" fill="#e6e6e6"/>
            <path id="Path_32" data-name="Path 32" d="M411.229,85.318H466.27a7.339,7.339,0,0,0,0-14.678H411.229a7.339,7.339,0,1,0,0,14.678Z" transform="translate(-194.722 -21.456)" fill="#e6e6e6"/>
            <g id="Group_7" data-name="Group 7" transform="translate(362.229 102.111)">
              <rect id="Rectangle_5" data-name="Rectangle 5" width="249.128" height="43.118" rx="5" fill="#fff"/>
              <g id="Group_5" data-name="Group 5" transform="translate(40.357 15.493)">
                <path id="Path_28" data-name="Path 28" d="M192.637,370.8H330.779a2.328,2.328,0,1,0,0-4.656H192.637a2.328,2.328,0,1,0,0,4.656Z" transform="translate(-190.309 -366.14)" fill="#e6e6e6"/>
                <path id="Path_29" data-name="Path 29" d="M240.4,389.541h76.832a2.328,2.328,0,1,0,0-4.656H240.4a2.328,2.328,0,0,0,0,4.656Z" transform="translate(-207.421 -375.422)" fill="#e6e6e6"/>
              </g>
              <path id="Path_20" data-name="Path 20" d="M223.316,294.136h20.371a2.386,2.386,0,0,0,2.255-2.493V289.39a2.385,2.385,0,0,0-2.255-2.493H223.316a2.385,2.385,0,0,0-2.255,2.493v2.253A2.386,2.386,0,0,0,223.316,294.136Z" transform="translate(-20.218 -277.007)" fill="#ff8f00"/>
            </g>
            <g id="Group_8" data-name="Group 8" transform="translate(211.419 162.729)">
              <rect id="Rectangle_5-2" data-name="Rectangle 5" width="249.128" height="43.118" rx="5" transform="translate(0 0)" fill="#fff"/>
              <g id="Group_5-2" data-name="Group 5" transform="translate(45.924 15.493)">
                <path id="Path_28-2" data-name="Path 28" d="M192.637,370.8H330.779a2.328,2.328,0,1,0,0-4.656H192.637a2.328,2.328,0,1,0,0,4.656Z" transform="translate(-190.309 -366.14)" fill="#e6e6e6"/>
                <path id="Path_29-2" data-name="Path 29" d="M240.4,389.541h76.832a2.328,2.328,0,1,0,0-4.656H240.4a2.328,2.328,0,0,0,0,4.656Z" transform="translate(-207.421 -375.422)" fill="#e6e6e6"/>
              </g>
              <path id="Path_20-2" data-name="Path 20" d="M223.316,294.136h20.371a2.386,2.386,0,0,0,2.255-2.493V289.39a2.385,2.385,0,0,0-2.255-2.493H223.316a2.385,2.385,0,0,0-2.255,2.493v2.253A2.386,2.386,0,0,0,223.316,294.136Z" transform="translate(-14.651 -277.007)" fill="#33d69f"/>
            </g>
            <g id="Group_9" data-name="Group 9" transform="translate(211.787 223.347)">
              <rect id="Rectangle_5-3" data-name="Rectangle 5" width="249.128" height="43.118" rx="5" transform="translate(0 0)" fill="#fff"/>
              <g id="Group_5-3" data-name="Group 5" transform="translate(43.45 15.493)">
                <path id="Path_28-3" data-name="Path 28" d="M192.637,370.8H330.779a2.328,2.328,0,1,0,0-4.656H192.637a2.328,2.328,0,1,0,0,4.656Z" transform="translate(-190.309 -366.14)" fill="#e6e6e6"/>
                <path id="Path_29-3" data-name="Path 29" d="M240.4,389.541h76.832a2.328,2.328,0,1,0,0-4.656H240.4a2.328,2.328,0,0,0,0,4.656Z" transform="translate(-207.421 -375.422)" fill="#e6e6e6"/>
              </g>
              <path id="Path_20-3" data-name="Path 20" d="M223.316,294.136h20.371a2.386,2.386,0,0,0,2.255-2.493V289.39a2.385,2.385,0,0,0-2.255-2.493H223.316a2.385,2.385,0,0,0-2.255,2.493v2.253A2.386,2.386,0,0,0,223.316,294.136Z" transform="translate(-17.125 -277.007)" fill="#707070" stroke="#707070" stroke-width="1"/>
            </g>
            <path id="Rectangle_7" data-name="Rectangle 7" d="M0,0H22A10,10,0,0,1,32,10V24A10,10,0,0,1,22,34H0a0,0,0,0,1,0,0V0A0,0,0,0,1,0,0Z" transform="translate(132.118 -0.109)" fill="#6c63ff"/>
          </g>
        </g>
        <circle id="Ellipse_2" data-name="Ellipse 2" cx="7.5" cy="7.5" r="7.5" transform="translate(405 466)" fill="#fff"/>
      </g>
    </g>
  </g>
</svg>


