<svg xmlns="http://www.w3.org/2000/svg" xmlns:xlink="http://www.w3.org/1999/xlink" width="1937.676" height="1128.266" viewBox="0 0 1937.676 1128.266">
  <defs>
    <linearGradient id="linear-gradient" x1="0.5" x2="0.5" y2="1" gradientUnits="objectBoundingBox">
      <stop offset="0" stop-color="#6c63ff"/>
      <stop offset="1" stop-color="#33d69f"/>
    </linearGradient>
    <linearGradient id="linear-gradient-2" x1="0.5" x2="0.5" y2="1" gradientUnits="objectBoundingBox">
      <stop offset="0" stop-color="#ff8f00"/>
      <stop offset="1" stop-color="#363280"/>
    </linearGradient>
    <linearGradient id="linear-gradient-5" x1="0.5" x2="0.5" y2="1" gradientUnits="objectBoundingBox">
      <stop offset="0" stop-color="#6c63ff"/>
      <stop offset="1" stop-color="#2f2e41"/>
    </linearGradient>
    <linearGradient id="linear-gradient-8" x1="0.5" x2="0.5" y2="1" gradientUnits="objectBoundingBox">
      <stop offset="0" stop-color="#6b62fd"/>
      <stop offset="1" stop-color="#ff8f00"/>
    </linearGradient>
    <linearGradient id="linear-gradient-10" x1="0.5" x2="0.5" y2="1" gradientUnits="objectBoundingBox">
      <stop offset="0" stop-color="#33d69f"/>
      <stop offset="1" stop-color="#363280"/>
    </linearGradient>
    <linearGradient id="linear-gradient-14" x1="0.5" x2="0.5" y2="1" gradientUnits="objectBoundingBox">
      <stop offset="0" stop-color="#6b62fd"/>
      <stop offset="1" stop-color="#36317f"/>
    </linearGradient>
  </defs>
  <g id="Group_58" data-name="Group 58" transform="translate(19.246 48.266)">
    <g id="Group_47" data-name="Group 47" transform="translate(10.802 0)">
      <circle id="Ellipse_84" data-name="Ellipse 84" cx="22.951" cy="22.951" r="22.951" transform="translate(0 677.891)" fill="url(#linear-gradient)"/>
      <path id="Path_278" data-name="Path 278" d="M28.311,0A28.311,28.311,0,1,1,0,28.311,28.311,28.311,0,0,1,28.311,0Z" transform="translate(1849.322 168.897)" fill="url(#linear-gradient-2)"/>
      <circle id="Ellipse_87" data-name="Ellipse 87" cx="16.836" cy="16.836" r="16.836" transform="translate(1107.45 845.599)" fill="url(#linear-gradient-2)"/>
      <circle id="Ellipse_97" data-name="Ellipse 97" cx="16.836" cy="16.836" r="16.836" transform="translate(1304.181 210.135)" fill="url(#linear-gradient-2)"/>
      <path id="Path_279" data-name="Path 279" d="M53.329,0l53.329,38.71-20.37,62.634H20.37L0,38.71Z" transform="translate(751.497 1057.063) rotate(-139)" fill="url(#linear-gradient-5)"/>
      <path id="Polygon_5" data-name="Polygon 5" d="M69.738,0l69.738,50.62-26.637,81.906h-86.2L0,50.62Z" transform="translate(1470.692 1080) rotate(-135)" fill="url(#linear-gradient)"/>
      <path id="Polygon_6" data-name="Polygon 6" d="M45.915,0,91.831,33.329,74.292,87.255H17.538L0,33.329Z" transform="translate(756.286 175.227) rotate(-135)" fill="url(#linear-gradient)"/>
      <path id="Polygon_4" data-name="Polygon 4" d="M16.784,0,33.567,29.191H0Z" transform="matrix(-0.259, 0.966, -0.966, -0.259, 1907.629, 726.533)" fill="url(#linear-gradient-8)"/>
      <path id="Polygon_7" data-name="Polygon 7" d="M16.784,0,33.567,29.191H0Z" transform="matrix(-0.259, 0.966, -0.966, -0.259, 964.794, 564.802)" fill="url(#linear-gradient-8)"/>
      <circle id="Ellipse_84-2" data-name="Ellipse 84" cx="31.687" cy="31.687" r="31.687" transform="matrix(0.999, 0.035, -0.035, 0.999, 1742.454, 824.874)" fill="url(#linear-gradient-10)"/>
      <circle id="Ellipse_88" data-name="Ellipse 88" cx="24.297" cy="24.297" r="24.297" transform="translate(389.395)" fill="url(#linear-gradient-10)"/>
      <path id="Polygon_1" data-name="Polygon 1" d="M27.937,0,55.873,20.278,45.2,53.09H10.671L0,20.278Z" transform="matrix(-0.966, -0.259, 0.259, -0.966, 1284.777, 287.291)" fill="url(#linear-gradient-10)"/>
      <path id="Polygon_9" data-name="Polygon 9" d="M10.544,0,21.087,7.653,17.06,20.036H4.027L0,7.653Z" transform="matrix(-0.966, -0.259, 0.259, -0.966, 297.196, 824.874)" fill="url(#linear-gradient-10)"/>
      <path id="Polygon_2" data-name="Polygon 2" d="M28.214,0,56.428,48.51H0Z" transform="translate(1143.253 49.992) rotate(83)" fill="url(#linear-gradient-14)"/>
      <path id="Polygon_3" data-name="Polygon 3" d="M30.234,0,60.468,52.424H0Z" transform="matrix(-0.259, 0.966, -0.966, -0.259, 1905.944, 634.912)" fill="url(#linear-gradient-14)"/>
      <path id="Polygon_8" data-name="Polygon 8" d="M15.406,0,30.812,26.713H0Z" transform="matrix(-0.259, 0.966, -0.966, -0.259, 788.016, 272.944)" fill="url(#linear-gradient-14)"/>
      <path id="Polygon_2-2" data-name="Polygon 2" d="M41.373,0,82.746,71.738H0Z" transform="matrix(-0.259, 0.966, -0.966, -0.259, 1560.087, 156.93)" fill="url(#linear-gradient-14)"/>
    </g>
    <circle id="Ellipse_84-3" data-name="Ellipse 84" cx="85.431" cy="85.431" r="85.431" transform="matrix(0.035, -0.999, 0.999, 0.035, -19.246, 122.492)" fill="url(#linear-gradient)"/>
  </g>
</svg>
