<svg xmlns="http://www.w3.org/2000/svg" width="1435.258" height="1433" viewBox="0 0 1435.258 1433">
  <g id="Group_21" data-name="Group 21" transform="translate(-1286.5 -279.251)">
    <ellipse id="Ellipse_10" data-name="Ellipse 10" cx="366.5" cy="357" rx="366.5" ry="357" transform="translate(1824.525 279.251)" fill="#fff"/>
    <path id="Path_84" data-name="Path 84" d="M263.42,183.31c-5.48,6.65-7.59,16-9.95,24.79-19,70.84-65.82,127.82-119.14,168.52C111.75,393.87,84.26,417,89.2,447.89c2.66,16.6,14.33,28.82,23,42.34,18.19,28.31,24.09,66.79,15.42,100.68-9.86,38.56-37.42,74.54-28.89,113.53,5.26,24,23.12,41.08,40.29,55.76q40.18,34.33,82.92,64.32c19.1,13.4,39.42,26.44,61.68,28.14,19.6,1.5,38.8-5.95,57.41-13.3,16.26-6.43,32.93-13.12,46.06-26,8.57-8.41,15.4-19.26,24.92-26.14,22.36-16.16,51.08-5.92,76.72,1,60.5,16.24,125.25,10.31,182.82-16.74,88.31-41.5,155.62-128.65,242-175.41,37.14-20.11,77.54-32.59,111.93-58.49a209.092,209.092,0,0,0,49.2-53.24c26-40.11,40.06-91.25,36-141.31s-26.81-98.3-62.54-126.56c-38.25-30.25-86.56-35.9-130.08-54.06-44.94-18.76-84.92-51-129.43-71.13a264.67,264.67,0,0,0-228.29,5.16c-48.44,24.45-97.54,81.62-151.49,85.92C370.42,185.39,293.43,146.89,263.42,183.31Z" transform="matrix(0.999, 0.035, -0.035, 0.999, 1613.434, 601.293)" fill="#6c63ff" opacity="0.1"/>
    <ellipse id="Ellipse_9" data-name="Ellipse 9" cx="366.5" cy="357" rx="366.5" ry="357" transform="translate(1286.5 998.251)" fill="#fff"/>
  </g>
</svg>
