<svg xmlns="http://www.w3.org/2000/svg" width="860.131" height="719.911" viewBox="0 0 860.131 719.911">
  <g id="Group_20" data-name="Group 20" transform="translate(-1055 893.911)">
    <g id="Group_18" data-name="Group 18">
      <g id="undraw_page_not_found" transform="translate(1054.995 -893.911)" opacity="0.5">
        <path id="Path_87" data-name="Path 87" d="M605.67,324.953c-7.669-12.685-16.757-26.228-30.99-30.37-16.482-4.8-33.413,4.732-47.775,14.134A1392.131,1392.131,0,0,0,403.013,400l.043.493,92.451-6.376c22.265-1.535,45.3-3.283,64.972-13.816,7.466-4,14.745-9.336,23.206-9.708,10.512-.462,19.677,6.879,26.88,14.549C653.172,430.515,665.5,499.9,713.3,539.76A1516.984,1516.984,0,0,0,605.67,324.953Z" transform="translate(-169.934 -164.426)" fill="#f2f2f2"/>
        <path id="Path_88" data-name="Path 88" d="M867.571,709.781c-4.712-5.95-6.637-7.343-11.285-13.348q-56.764-73.416-106.708-151.792-33.923-53.23-64.483-108.5-14.549-26.278-28.3-52.969-10.67-20.7-20.865-41.638c-1.944-3.988-3.832-7.994-5.711-12.009-4.428-9.442-8.773-18.931-13.439-28.245-5.317-10.616-11.789-21.745-21.553-28.877a29.4,29.4,0,0,0-15.319-5.895c-7.948-.513-15.282,2.769-22.176,6.353-50.439,26.3-97.659,59.276-140.37,96.8A730.781,730.781,0,0,0,303.322,496.247c-1.008,1.439-3.392.064-2.374-1.384q6.009-8.5,12.257-16.813a734.818,734.818,0,0,1,187.6-174.986q18.248-11.826,37.183-22.542c6.362-3.6,12.752-7.16,19.251-10.5,6.371-3.273,13.137-6.215,20.416-6.325,24.77-.385,37.6,27.667,46.405,46.543q4.153,8.911,8.406,17.766,16.075,33.621,33.387,66.628,10.684,20.379,21.837,40.52,34.707,62.718,73.779,122.9c34.506,53.143,68.737,100.089,108.046,149.785C870.6,709.213,868.662,711.175,867.571,709.781Z" transform="translate(-169.934 -164.426)" fill="#e4e4e4"/>
        <path id="Path_89" data-name="Path 89" d="M414.916,355.8c-1.439-1.6-2.869-3.209-4.318-4.813-11.422-12.633-23.679-25.118-39.364-32.361a57.11,57.11,0,0,0-23.927-5.546c-8.562.028-16.932,2.273-24.843,5.418-3.74,1.494-7.4,3.19-11,5-4.116,2.072-8.159,4.281-12.183,6.509q-11.331,6.27-22.368,13.091-21.961,13.572-42.546,29.216-10.671,8.113-20.9,16.758-9.516,8.031-18.646,16.492c-1.3,1.2-3.245-.743-1.944-1.943,1.6-1.494,3.227-2.979,4.85-4.446q6.875-6.215,13.971-12.193,12.939-10.918,26.549-20.993,21.163-15.676,43.783-29.225Q293.33,330,304.945,323.8c2.338-1.247,4.7-2.466,7.1-3.621a113.113,113.113,0,0,1,16.868-6.866,60.007,60.007,0,0,1,25.476-2.5,66.327,66.327,0,0,1,23.505,8.131c15.4,8.608,27.346,21.919,38.97,34.909C418.033,355.171,416.1,357.124,414.916,355.8Z" transform="translate(-169.934 -164.426)" fill="#e4e4e4"/>
        <path id="Path_90" data-name="Path 90" d="M730.477,486.711l36.9-13.5,18.323-6.7c5.968-2.183,11.921-4.667,18.09-6.23a28.539,28.539,0,0,1,16.374.209,37.738,37.738,0,0,1,12.771,7.917,103.648,103.648,0,0,1,10.475,11.186c3.989,4.794,7.92,9.639,11.868,14.467q24.441,29.891,48.563,60.041t47.92,60.556q23.857,30.48,47.385,61.216,2.882,3.765,5.76,7.534c1.06,1.388,3.449.02,2.375-1.388q-23.7-31.045-47.736-61.835-24.092-30.864-48.516-61.466t-49.179-60.937q-6.167-7.558-12.354-15.1c-3.48-4.241-6.92-8.527-10.736-12.474-7.005-7.245-15.758-13.648-26.234-13.822-6.16-.1-12.121,1.852-17.844,3.923-6.17,2.232-12.325,4.506-18.486,6.759l-37.163,13.592-9.291,3.4c-1.649.6-.937,3.262.731,2.652Z" transform="translate(-169.934 -164.426)" fill="#e4e4e4"/>
        <path id="Path_91" data-name="Path 91" d="M366.377,334.526c-18.754-9.639-42.771-7.751-60.005,4.291a855.835,855.835,0,0,1,97.371,22.726C390.46,353.759,380.07,341.564,366.377,334.526Z" transform="translate(-169.934 -164.426)" fill="#f2f2f2"/>
        <path id="Path_92" data-name="Path 92" d="M306.188,338.784l-3.61,2.935c1.221-1.027,2.491-1.99,3.8-2.9Z" transform="translate(-169.934 -164.426)" fill="#f2f2f2"/>
        <path id="Path_93" data-name="Path 93" d="M831.549,486.846c-3.633-4.422-7.56-9.052-12.994-10.848l-5.073.2a575.435,575.435,0,0,0,153.267,175.22Z" transform="translate(-169.934 -164.426)" fill="#f2f2f2"/>
        <path id="Path_94" data-name="Path 94" d="M516.084,450.367a37.481,37.481,0,0,0,14.931,20.958c2.82,1.92,6.157,3.762,7.122,7.035a8.379,8.379,0,0,1-.874,6.15,24.884,24.884,0,0,1-3.861,5.041l-.137.512c-7-4.147-13.656-9.393-17.522-16.551s-4.406-16.539.341-23.145" transform="translate(-169.934 -164.426)" fill="#f2f2f2"/>
        <path id="Path_95" data-name="Path 95" d="M749.084,653.367a37.481,37.481,0,0,0,14.931,20.958c2.82,1.92,6.157,3.762,7.122,7.035a8.378,8.378,0,0,1-.874,6.15,24.885,24.885,0,0,1-3.861,5.041l-.137.512c-7-4.147-13.656-9.393-17.522-16.551s-4.406-16.539.341-23.145" transform="translate(-169.934 -164.426)" fill="#f2f2f2"/>
        <path id="Path_96" data-name="Path 96" d="M284.084,639.367a37.481,37.481,0,0,0,14.931,20.958c2.82,1.92,6.157,3.762,7.122,7.035a8.379,8.379,0,0,1-.874,6.15,24.883,24.883,0,0,1-3.861,5.041l-.137.512c-7-4.147-13.656-9.393-17.522-16.551s-4.406-16.539.341-23.145" transform="translate(-169.934 -164.426)" fill="#f2f2f2"/>
        <circle id="Ellipse_11" data-name="Ellipse 11" cx="51" cy="51" r="51" transform="translate(598.249)" fill="#6c63ff"/>
        <path id="Path_97" data-name="Path 97" d="M911.219,176.3c-24.717-3.341-52.935,10.019-59.341,34.124a21.6,21.6,0,0,0-41.094,2.109l2.83,2.027a372.276,372.276,0,0,0,160.659-.726C957.079,195.76,935.935,179.637,911.219,176.3Z" transform="translate(-169.934 -164.426)" fill="#f0f0f0"/>
        <path id="Path_98" data-name="Path 98" d="M805.219,244.3c-24.717-3.341-52.935,10.019-59.341,34.123a21.6,21.6,0,0,0-41.094,2.109l2.83,2.027a372.274,372.274,0,0,0,160.659-.726C851.079,263.76,829.935,247.637,805.219,244.3Z" transform="translate(-169.934 -164.426)" fill="#f0f0f0"/>
        <path id="Path_99" data-name="Path 99" d="M1020.95,257.154a.983.983,0,0,1-.3-.047C756.237,173.489,523.2,184.424,374.264,208.321c-20.269,3.251-40.591,7.006-60.4,11.161-5.058,1.06-10.306,2.2-15.6,3.378-6.319,1.407-12.554,2.856-18.532,4.306q-3.873.917-7.595,1.849c-3.758.928-7.572,1.895-11.66,2.957-4.568,1.178-9.209,2.413-13.8,3.672a.438.438,0,0,1-.051.015h0c-5.183,1.415-10.338,2.871-15.323,4.325-2.7.779-5.3,1.548-7.8,2.307-.279.077-.526.151-.776.228l-.536.163c-.311.095-.617.188-.924.275l-.02.006h0l-.812.252c-.968.293-1.912.579-2.841.864-24.545,7.566-38.038,12.949-38.171,13a1,1,0,1,1-.744-1.856c.134-.053,13.693-5.463,38.328-13.058.932-.286,1.879-.572,2.85-.866l.754-.234c.026-.01.052-.018.078-.025.305-.087.61-.18.919-.273l.537-.163c.268-.081.531-.161.8-.235,2.479-.754,5.093-1.524,7.8-2.307,4.987-1.455,10.148-2.911,15.334-4.328.016-.006.033-.01.049-.015h0c4.6-1.263,9.263-2.5,13.845-3.685,4.094-1.063,7.915-2.032,11.68-2.962q3.738-.93,7.609-1.853c5.985-1.451,12.233-2.9,18.563-4.312,5.3-1.184,10.556-2.322,15.622-3.383,19.843-4.162,40.2-7.923,60.5-11.179,149.149-23.932,382.52-34.884,647.3,48.854a1,1,0,0,1-.3,1.953Z" transform="translate(-169.934 -164.426)" fill="#ccc"/>
        <path id="Path_104" data-name="Path 104" d="M629.526,700.361h2.329V594.319h54.329V592H631.854V547.252H673.81q-.923-1.173-1.9-2.317H631.854V515.382c-.77-.328-1.547-.645-2.329-.943v30.5H583.873V507.07c-.782.036-1.553.09-2.329.155v37.71h-36.42V516.684c-.782.346-1.553.711-2.317,1.093v27.158H512.191v2.317h30.616V592H512.191v2.323h30.616V700.361h2.317V594.319a36.414,36.414,0,0,1,36.42,36.427v69.614h2.329V594.319h45.652ZM545.125,592V547.252h36.42V592Zm38.749,0V547.252h.914a44.741,44.741,0,0,1,44.738,44.742Z" transform="translate(-169.934 -164.426)" opacity="0.2"/>
        <path id="Path_105" data-name="Path 105" d="M615.3,668.566a63.058,63.058,0,0,1-20.05,33.7c-.74.64-1.48,1.26-2.25,1.87q-2.8.255-5.57.52c-1.53.14-3.04.29-4.54.43l-.27.03-.19-1.64-.76-6.64a37.623,37.623,0,0,1-3.3-32.44c2.64-7.12,7.42-13.41,12.12-19.65,6.49-8.62,12.8-17.14,13.03-27.65a60.545,60.545,0,0,1,7.9,13.33,16.432,16.432,0,0,0-5.12,3.77c-.41.45-.82,1.08-.54,1.62.24.46.84.57,1.36.63l3.76.39c1,.11,2,.21,3,.32a63.989,63.989,0,0,1,2.45,12.18A61.187,61.187,0,0,1,615.3,668.566Z" transform="translate(-169.934 -164.426)" fill="#3f3d56"/>
        <path id="Path_106" data-name="Path 106" d="M648.5,642.356c-5.9,4.29-9.35,10.46-12.03,17.26a16.628,16.628,0,0,0-7.17,4.58c-.41.45-.82,1.08-.54,1.62.24.46.84.57,1.36.63l3.76.39c-2.68,8.04-5.14,16.36-9.88,23.15a36.989,36.989,0,0,1-12.03,10.91,38.484,38.484,0,0,1-4.02,1.99q-7.62.585-14.95,1.25-2.8.255-5.57.52c-1.53.14-3.04.29-4.54.43q-.015-.825,0-1.65a63.3,63.3,0,0,1,15.25-39.86c.45-.52.91-1.03,1.38-1.54a61.791,61.791,0,0,1,16.81-12.7,62.655,62.655,0,0,1,32.17-6.98Z" transform="translate(-169.934 -164.426)" fill="#6c63ff"/>
        <path id="Path_107" data-name="Path 107" d="M589.163,699.526l-1.15,3.4-.58,1.73c-1.53.14-3.04.29-4.54.43l-.27.03-4.96.51c-.43-.5-.86-1.01-1.28-1.53a62.03,62.03,0,0,1,8.07-87.11c-1.32,6.91.22,13.53,2.75,20.1-.27.11-.53.22-.78.34a16.432,16.432,0,0,0-5.12,3.77c-.41.45-.82,1.08-.54,1.62.24.46.84.57,1.36.63l3.76.39c1,.11,2,.21,3,.32l1.41.15c.07.15.13.29.2.44,2.85,6.18,5.92,12.39,7.65,18.83a43.666,43.666,0,0,1,1.02,4.91A37.6,37.6,0,0,1,589.163,699.526Z" transform="translate(-169.934 -164.426)" fill="#6c63ff"/>
        <path id="Path_109" data-name="Path 109" d="M602.431,676.882a3.78,3.78,0,0,1-2.739-6.551l.259-1.03-.1-.247c-3.48-8.3-25.685,14.833-26.645,22.632a30.027,30.027,0,0,0,.527,10.327,120.393,120.393,0,0,1-10.952-50,116.222,116.222,0,0,1,.721-12.963q.6-5.293,1.657-10.51a121.787,121.787,0,0,1,24.151-51.617c6.874.384,12.9-.663,13.48-13.985.1-2.37,1.861-4.422,2.248-6.756-.656.086-1.323.14-1.979.183l-.624.032-.077,0a3.745,3.745,0,0,1-3.076-6.1l.851-1.046c.43-.538.871-1.065,1.3-1.6a1.862,1.862,0,0,0,.14-.161c.495-.613.99-1.216,1.485-1.829a10.828,10.828,0,0,0-3.55-3.432c-4.959-2.9-11.8-.893-15.384,3.593S579.851,556.6,581.1,562.2a43.4,43.4,0,0,0,6,13.383c-.269.344-.549.678-.818,1.022a122.576,122.576,0,0,0-12.794,20.268c1.016-7.939-11.412-36.608-16.218-42.68-5.773-7.294-17.611-4.111-18.628,5.136q-.015.134-.029.268,1.071.6,2.1,1.282a5.127,5.127,0,0,1-2.067,9.33l-.1.016c-9.556,13.644,21.077,49.155,28.745,41.181a125.108,125.108,0,0,0-6.735,31.693,118.658,118.658,0,0,0,.086,19.16l-.032-.226c-1.7-13.882-30.931-34.522-39.466-32.8-4.917.99-9.76.765-9.013,5.725q.018.119.036.237a34.437,34.437,0,0,1,3.862,1.861q1.071.6,2.1,1.282a5.127,5.127,0,0,1-2.067,9.33l-.1.016-.215.032c-4.35,14.966,27.907,39.12,47.518,31.435h.011a125.079,125.079,0,0,0,8.4,24.528h30.015c.108-.333.2-.678.3-1.011a34.1,34.1,0,0,1-8.305-.495c2.227-2.732,4.454-5.487,6.681-8.219a1.88,1.88,0,0,0,.14-.161c1.13-1.4,2.27-2.786,3.4-4.185v0a49.953,49.953,0,0,0-1.464-12.725ZM568.06,609.269l.016-.021-.016.043ZM561.412,669.2l-.258-.581c.011-.42.011-.839,0-1.269,0-.118-.021-.237-.021-.355.1.742.183,1.485.29,2.227Z" transform="translate(-169.934 -164.426)" fill="#3f3d56"/>
        <path id="Path_113" data-name="Path 113" d="M1028.88,735.267l-857.75.307a1.191,1.191,0,0,1,0-2.381l857.75-.307a1.191,1.191,0,1,1,0,2.381Z" transform="translate(-169.934 -164.426)" fill="#cacaca"/>
        <text id="_4" data-name="4" transform="translate(564.005 565.911)" fill="#7e88c3" font-size="333" font-family="SegoeUI-Light, Segoe UI" font-weight="300"><tspan x="0" y="0">4</tspan></text>
        <text id="_4-2" data-name="4" transform="translate(70.005 565.911)" fill="#7e88c3" font-size="333" font-family="SegoeUI-Light, Segoe UI" font-weight="300"><tspan x="0" y="0">4</tspan></text>
        <text id="O" transform="translate(284.005 565.911)" fill="#7e88c3" font-size="333" font-family="SegoeUI-Light, Segoe UI" font-weight="300"><tspan x="0" y="0">O</tspan></text>
      </g>
    </g>
  </g>
  <text id="Not_found_" data-name="Not found !!" transform="translate(402.5 694.911)" fill="#7e88c3" font-size="100" font-family="SegoeUI-Semibold, Segoe UI" font-weight="600" opacity="0.5"><tspan x="-279.712" y="0">Not found !!</tspan></text>
</svg>
